<svg width="121" height="168" viewBox="0 0 121 168" fill="none" xmlns="http://www.w3.org/2000/svg">
<path d="M0 167.519V129.019L118 112.019L121 148.519L79.5 167.519H0Z" fill="#A78A4F"/>
<path d="M0 128.519L2 82.019L116 67.519L118.5 112.019L82 128.519H0Z" fill="#58453E"/>
<path d="M2.5 82.519V61.019L117.5 37.519V67.519L82.5 82.519H2.5Z" fill="#857949"/>
<path d="M40 28.019L116.5 38.019L81.5 61.519H2.5L40 28.019Z" fill="#564430"/>
<path d="M48 24.019C45.2 38.819 61.8333 45.1857 70.5 46.519C77 48.1371 97 31.019 87 13.519C77 -3.98095 63.5 0.519046 61.5 0.519046C59.5 0.519046 51.5 5.51905 48 24.019Z" fill="#D87440"/>
</svg>
