<svg width="148" height="189" viewBox="0 0 148 189" fill="none" xmlns="http://www.w3.org/2000/svg">
<path fill-rule="evenodd" clip-rule="evenodd" d="M21.0675 175.5C44.7342 182.833 100.368 194.7 133.568 183.5L130.568 140C121.734 133.833 109.368 119.8 130.568 113L138.568 41.5C132.901 42.3334 122.768 41.7 127.568 32.5C132.368 23.3 139.901 28.6667 143.068 32.5L147.068 7.5C136.734 5 110.868 0.399999 90.0675 2C87.5675 8.5 80.3675 17.6 71.5675 2H21.0675C15.0675 55.8333 6.66753 165.9 21.0675 175.5ZM34.5675 38.5C32.5675 34.5 36.7342 31.5 39.0675 30.5C47.4675 29.3 61.2342 31 67.0675 32C77.5675 46.5 66.5675 52.5 56.5675 52C46.5675 51.5 37.0675 43.5 34.5675 38.5ZM93.0675 99C102.268 89.4 106.901 96.3333 108.068 101C107.068 107.833 107.068 112.944 107.068 116.796C107.068 124.5 107.068 127.167 99.0675 128.5C87.0675 130.5 81.5675 111 93.0675 99ZM48.0675 152.5C50.4009 154.667 57.8675 158.1 69.0675 154.5C83.0675 150 83.5675 135.5 63.0675 143C57.4009 142.333 46.4675 143.3 48.0675 152.5Z" fill="#D5AC16"/>
<path d="M25.5675 1.5L7.06754 0C-5.73246 35.2 1.73421 132.333 7.06754 176.5H23.0675C9.86754 147.7 19.2342 47.8333 25.5675 1.5Z" fill="#B79029"/>
</svg>
