<svg width="143" height="178" viewBox="0 0 143 178" fill="none" xmlns="http://www.w3.org/2000/svg">
<path d="M8.31012 31.8388C-10.0899 59.8388 6.31012 82.8388 16.8101 90.8388C16.8101 97.3388 92.3101 108.839 124.81 84.3388C150.81 64.7388 141.977 38.8388 134.31 28.3388C130.643 22.5055 118.01 9.13882 96.8101 2.33882C75.6101 -4.46118 38.3101 5.17216 22.3101 10.8388L8.31012 31.8388Z" fill="#B37F2C"/>
<path d="M29.8101 97.3389L16.8101 90.3389L34.8101 172.839C83.6101 182.439 106.477 173.506 111.81 167.839L123.81 84.3389L115.31 75.8389L105.81 90.3389L96.3101 81.3389L86.8101 90.3389L76.8101 84.3389L71.3101 90.3389L60.8101 86.8389L53.3101 97.3389L38.3101 86.8389L29.8101 97.3389Z" fill="#6B94CA" stroke="#6B94CA"/>
</svg>
