<svg width="123" height="305" viewBox="0 0 123 305" fill="none" xmlns="http://www.w3.org/2000/svg">
<path d="M47 300.524C33.4 266.124 25.3333 178.191 23 138.524L93.5 140.524C92.5 149.024 67 265.524 63 290.024C59.8 309.624 51 305.191 47 300.524Z" fill="#BE7B30"/>
<path d="M11.5 138.524V102.024L107.5 100.524L106 141.024L11.5 138.524Z" fill="#D7970C" stroke="#D7970C"/>
<path d="M5.5 28.0243C-4.10001 55.2243 6.5 89.3577 13 103.024C32.2 107.824 84 103.024 107.5 100.024C93.1 119.224 108.5 134.358 118 139.524L122.5 133.024C124.5 121.824 116 104.358 111.5 97.0244C123.5 74.2243 119.167 50.191 115.5 41.0244C116 40.5244 115.9 36.2244 111.5 23.0244C107.1 9.82435 71.3333 6.85769 54 7.02435C54 3.82435 49.3333 1.02433 47 0.0243233C26.2 -0.775677 7 18.3577 0 28.0243H5.5Z" fill="#B94538"/>
</svg>
