<svg width="120" height="297" viewBox="0 0 120 297" fill="none" xmlns="http://www.w3.org/2000/svg">
<path d="M57.6177 0H48.1177C48.1177 5.2 46.451 199.833 45.6177 296.5H54.1177C50.9177 257.3 55.1177 82.5 57.6177 0Z" fill="#AC7F56"/>
<path d="M50.1177 27.5C34.1177 29.5 16.451 51.3334 9.61769 62C7.28436 62 2.11769 69.3 0.117695 98.5C-2.38231 135 35.6177 166 50.1177 167.5C61.7177 168.7 93.2844 152.333 107.618 144C109.118 141.667 113.118 134.9 117.118 126.5C121.118 118.1 118.784 84.6667 117.118 69L97.1177 45C88.1177 38.3334 66.1177 25.5 50.1177 27.5Z" fill="#787BA8"/>
<path d="M83.1177 51.5C73.9177 40.3 40.6177 41.1666 25.1177 43L10.1177 61C42.5177 44.2 67.6177 54 76.1177 61C107.618 93.5 96.6177 118 90.1177 128C83.6177 138 66.1177 142 44.6177 133C23.1177 124 26.6177 99.5 34.1177 85C41.6177 70.5 77.1177 73 78.6177 94.5C80.1177 116 62.1177 119 60.1177 118C58.1177 117 43.1177 115 47.6177 101.5C51.2177 90.7 58.7843 93.6667 62.1177 96.5C58.9177 96.5 56.7843 99.8333 56.1177 101.5C51.3177 112.335 60.7843 111.348 66.1177 109.5C71.7843 103.833 78.2177 91.4 58.6177 87C39.0177 82.6 35.1177 99.5 35.6177 108.5C43.1177 137.5 61.6177 128.5 67.1177 128C72.6177 127.5 93.1177 111.5 83.1177 87C75.1177 67.4 54.1177 64.1667 44.6177 65C34.1177 65.3333 13.4177 73.1 14.6177 101.5C16.1177 137 32.6177 145 58.6177 147.5C84.6177 150 106.618 129.5 106.618 101.5C106.618 73.5 94.6177 65.5 83.1177 51.5Z" fill="#F7DA14"/>
</svg>
