<svg width="114" height="322" viewBox="0 0 114 322" fill="none" xmlns="http://www.w3.org/2000/svg">
<path d="M95.633 291.37C90.033 294.97 77.9663 288.203 72.633 284.37C64.233 285.57 52.133 282.203 47.133 280.37C46.133 278.037 41.633 271.87 31.633 265.87C21.633 259.87 20.7997 249.37 21.633 244.87C14.833 242.47 13.4663 231.537 13.633 226.37C3.63299 213.57 3.46633 200.37 4.63299 195.37C-2.96701 186.97 0.466325 172.203 3.13299 165.87C0.332995 159.07 2.96633 142.703 4.63299 135.37C3.03299 132.57 5.29966 122.87 6.63299 118.37C3.43299 107.57 7.96632 92.5366 10.633 86.3699C11.033 73.9699 14.7997 60.5366 16.633 55.3699C16.633 50.9699 19.9663 41.8699 21.633 37.8699C20.033 33.8699 26.633 25.2033 30.133 21.3699C31.333 8.56993 38.9663 7.36993 42.633 8.36993C46.233 2.76993 53.7997 3.03662 57.133 3.86996C61.133 -0.530039 75.133 -0.296705 81.633 0.369962C102.833 7.56996 104.133 19.7033 102.133 24.87C106.533 25.67 105.633 35.87 104.633 40.87C107.833 48.07 103.3 57.2033 100.633 60.87C101.433 76.47 98.2997 78.7033 96.633 77.87C98.233 87.07 94.633 94.7033 92.633 97.37C95.833 108.17 90.2997 119.203 87.133 123.37C90.333 129.77 85.7997 141.037 83.133 145.87C85.533 147.07 84.133 165.37 83.133 174.37C89.533 177.17 89.4663 191.203 88.633 197.87C92.233 197.87 96.133 209.537 97.633 215.37C101.633 216.57 102.3 226.87 102.133 231.87C108.933 242.27 100.633 258.87 95.633 265.87C100.033 268.67 98.7997 282.703 97.633 289.37C103.966 299.037 115.833 318.87 112.633 320.87C109.433 322.87 99.9663 302.037 95.633 291.37Z" fill="#76A04E"/>
</svg>
