<svg width="160" height="257" viewBox="0 0 160 257" fill="none" xmlns="http://www.w3.org/2000/svg">
<path d="M154 130.531L146.5 42.0312C136.5 42.0312 45.3333 145.031 1 196.531L7.5 251.531L154 130.531Z" fill="#7C4456"/>
<path d="M146.5 43.0312C122.5 25.0312 63.8333 18.8646 37.5 18.0312C26.7 48.4312 8 150.698 0 198.031L146.5 43.0312Z" fill="#A16D17"/>
<path d="M144.5 44.0313L156 30.0313C126 4.83128 65.8333 -0.468721 39.5 0.0312789C34.3 1.63128 37.3333 13.6979 39.5 19.5313L144.5 44.0313Z" fill="#6B5035"/>
<path d="M159.5 132.031L156 31.0312L146 42.5312L153.5 130.531L7.5 252.031L9 256.531L159.5 132.031Z" fill="#653A17"/>
<ellipse cx="19.5" cy="193.531" rx="12" ry="11.5" fill="#7F445A"/>
<ellipse cx="50.5" cy="193.531" rx="12" ry="11.5" fill="#AC3934"/>
<ellipse cx="33.5" cy="176.531" rx="12" ry="11.5" fill="#E98530"/>
<ellipse cx="48.5" cy="165.531" rx="12" ry="11.5" fill="#C55157"/>
<ellipse cx="68.5" cy="177.531" rx="12" ry="11.5" fill="#89464D"/>
<ellipse cx="14.5" cy="216.531" rx="12" ry="11.5" fill="#CD6066"/>
<ellipse cx="12" cy="234.031" rx="9.5" ry="9" fill="#AE4937"/>
<ellipse cx="37" cy="210.031" rx="9.5" ry="9" fill="#C64237"/>
<ellipse cx="66" cy="157.031" rx="9.5" ry="9" fill="#74443F"/>
<ellipse cx="58" cy="144.031" rx="7.5" ry="7" fill="#74443F"/>
<path d="M83 134.031C83 139.255 78.5461 143.531 73 143.531C67.4539 143.531 63 139.255 63 134.031C63 128.807 67.4539 124.531 73 124.531C78.5461 124.531 83 128.807 83 134.031Z" fill="#C75E63" stroke="#C75E63"/>
<ellipse cx="84" cy="156.031" rx="10.5" ry="10" fill="#FFCE84"/>
<ellipse cx="116.5" cy="127.531" rx="14" ry="13.5" fill="#A43B38"/>
<ellipse cx="93.5" cy="138.531" rx="9" ry="8.5" fill="#F06C2C"/>
<ellipse cx="92.5" cy="115.531" rx="12" ry="11.5" fill="#BA3B4C"/>
<ellipse cx="114" cy="101.031" rx="13.5" ry="13" fill="#EC6B43"/>
<ellipse cx="105.5" cy="155.531" rx="11" ry="10.5" fill="#973E40"/>
<path d="M127 147.031C127 151.701 122.996 155.531 118 155.531C113.004 155.531 109 151.701 109 147.031C109 142.362 113.004 138.531 118 138.531C122.996 138.531 127 142.362 127 147.031Z" fill="#6C343F" stroke="#6C343F"/>
<ellipse cx="137" cy="133.031" rx="9.5" ry="9" fill="#C1514F"/>
<ellipse cx="133" cy="113.031" rx="9.5" ry="9" fill="#8A463B"/>
<ellipse cx="146" cy="118.031" rx="9.5" ry="9" fill="#AF484B"/>
<ellipse cx="140" cy="97.0312" rx="9.5" ry="9" fill="#A36C71"/>
<ellipse cx="131.5" cy="84.5312" rx="11" ry="10.5" fill="#BC535A"/>
</svg>
