<svg width="115" height="276" viewBox="0 0 115 276" fill="none" xmlns="http://www.w3.org/2000/svg">
<path d="M3.64096 167.813C12.841 194.213 58.4743 198.48 80.141 197.313C121.641 172.813 114.641 134.313 112.141 128.813C109.641 123.313 103.141 91.3129 105.141 75.3129C107.141 59.3129 104.141 38.3129 96.141 31.3129C88.141 24.3129 45.641 11.8129 24.141 31.3129C2.64096 50.8129 1.14096 94.3129 0.140958 123.813C-0.659042 147.413 2.14096 162.98 3.64096 167.813Z" fill="#7E5050"/>
<path d="M74.1409 91.3129C51.7409 81.7129 34.1409 90.3129 28.1409 95.8129C8.14093 114.813 6.64095 119.313 5.14095 149.813C3.64095 180.313 50.1409 203.313 77.6409 190.813C105.141 178.313 109.641 155.813 111.141 142.813C112.641 129.813 102.141 103.313 74.1409 91.3129Z" fill="#DF713C"/>
<path d="M24.641 3.3129C39.041 -1.4871 52.641 14.6462 57.641 23.3129H69.641L80.141 9.31287L73.641 5.31287L69.641 7.31287V3.3129L64.141 1.31287V5.31287L59.641 1.31287V7.31287L57.641 1.31287L45.641 3.3129C38.841 -2.68708 28.8076 0.812908 24.641 3.3129Z" fill="#714850"/>
<path d="M11.8478 226.345C14.9132 217.149 31.1594 201.164 71.6217 210.795C85.5859 215.644 111.267 227.649 102.275 236.878C101.703 237.465 100.946 237.964 100.021 238.383H103.808V254.936C50.1644 303.591 2.14096 252.428 2.14096 248.916C2.14096 246.108 4.86569 240.724 6.22806 238.383H67.2407C48.1882 235.637 25.9374 230.271 11.8478 226.345Z" fill="#994046"/>
<path d="M36.141 211.286C74.941 205.686 97.641 225.619 104.141 236.286C101.641 258.786 74.141 268.786 44.641 264.786C21.041 261.586 9.47429 246.452 6.64096 239.286C7.84096 224.086 26.8076 214.286 36.141 211.286Z" fill="#F39476"/>
<path d="M22.641 233.313V227.313L15.141 230.313L22.641 233.313Z" fill="#FFE5BE"/>
<path d="M21.141 245.813L21.641 237.813L38.641 245.813H21.141Z" fill="#625453"/>
<path d="M46.641 235.813H42.141L46.641 242.313L51.641 241.313L46.641 235.813Z" fill="#7C4237"/>
<path d="M55.141 249.813L43.641 254.313L55.141 261.313V249.813Z" fill="#7C4237"/>
<path d="M48.141 229.813L45.641 218.813H56.641L48.141 229.813Z" fill="#7D4341"/>
<path d="M53.141 227.813L58.641 222.813L67.141 230.313L61.141 234.813L53.141 227.813Z" fill="#C04851"/>
<path d="M70.141 217.813L66.641 218.313L72.141 223.813L76.141 222.813L70.141 217.813Z" fill="#FFF5E1"/>
<path d="M71.141 233.813L76.641 226.813L94.641 229.813L89.141 235.813L71.141 233.813Z" fill="#65444F"/>
<path d="M83.141 247.313L76.641 244.313L72.641 255.813L79.641 257.813L83.141 247.313Z" fill="#BA4B51"/>
<path d="M73.8909 183.308L79.0871 180.308L72.739 175.313L73.8909 183.308Z" fill="#FFE5BE"/>
<path d="M15.5644 128.009L22.7426 124.442L24.3144 143.164L15.5644 128.009Z" fill="#625453"/>
<path d="M36.9746 145.093L34.7246 141.196L31.3454 148.343L34.7115 152.173L36.9746 145.093Z" fill="#7C4237"/>
<path d="M29.1003 159.454L19.4532 151.745L19.141 165.204L29.1003 159.454Z" fill="#7C4237"/>
<path d="M42.9208 143.392L51.1971 135.727L56.6971 145.253L42.9208 143.392Z" fill="#7D4341"/>
<path d="M47.1528 146.722L54.233 148.985L51.9878 160.096L45.0907 157.15L47.1528 146.722Z" fill="#C04851"/>
<path d="M64.3131 156.444L62.1301 153.663L60.117 161.176L62.983 164.14L64.3131 156.444Z" fill="#FFF5E1"/>
<path d="M50.9567 165.31L59.7689 166.573L66.1708 183.662L58.2246 181.899L50.9567 165.31Z" fill="#65444F"/>
<path d="M45.2653 182.453L44.6134 175.323L32.6541 177.609L34.4221 184.672L45.2653 182.453Z" fill="#BA4B51"/>
<path d="M79.5644 160.167L74.3682 163.167L80.7163 168.162L79.5644 160.167Z" fill="#FFE5BE"/>
<path d="M91.1397 155.216L83.9615 158.783L82.3897 140.06L91.1397 155.216Z" fill="#625453"/>
<path d="M69.7294 138.132L71.9794 142.029L75.3586 134.882L71.9926 131.052L69.7294 138.132Z" fill="#7C4237"/>
<path d="M77.6038 123.771L87.2509 131.48L87.5631 118.021L77.6038 123.771Z" fill="#7C4237"/>
<path d="M108.917 141.174L100.641 148.839L95.1409 139.313L108.917 141.174Z" fill="#7D4341"/>
<path d="M59.5513 136.503L52.4711 134.24L54.7163 123.129L61.6134 126.075L59.5513 136.503Z" fill="#C04851"/>
<path d="M42.391 126.78L44.574 129.562L46.5871 122.048L43.7211 119.084L42.391 126.78Z" fill="#FFF5E1"/>
<path d="M55.7474 117.914L46.9352 116.651L40.5333 99.5629L48.4795 101.326L55.7474 117.914Z" fill="#65444F"/>
<path d="M61.4387 100.772L62.0906 107.901L74.0499 105.615L72.282 98.5533L61.4387 100.772Z" fill="#BA4B51"/>
</svg>
