<svg width="110" height="306" viewBox="0 0 110 306" fill="none" xmlns="http://www.w3.org/2000/svg">
<path d="M91.7245 3.5L82.7245 0L70.7245 24C68.0578 24.6667 60.3245 26.8 50.7245 30C38.7245 34 25.2245 58 13.2245 86C1.22449 114 -9.27551 174 13.2245 228C31.2245 271.2 64.7245 278.667 79.2245 277C79.2245 286.6 85.5578 300 88.7245 305.5L104.724 301.5L109.724 297.5L92.2245 271C92.8912 268 94.9245 259.9 97.7245 251.5C100.524 243.1 86.5578 207.333 79.2245 190.5C69.7245 124 79.7245 122 88.7245 86C95.9245 57.2 89.7245 36.6667 85.7245 30L104.224 13.5L93.7245 9L91.7245 3.5Z" fill="#E15548"/>
</svg>
