<svg width="126" height="245" viewBox="0 0 126 245" fill="none" xmlns="http://www.w3.org/2000/svg">
<path d="M0 227L8 213C33.6 227.4 92 226 118 223.5L126 242.5C81.2 250.1 23.3333 235.333 0 227Z" fill="#85A951"/>
<path d="M23.5 131L79 0C86.6 16 109.167 158.333 119.5 227.5C74 237.5 7 218 7 213C7 209 18 156.667 23.5 131Z" fill="#E16036"/>
<path d="M76 28C71.8333 30.8333 65.4 40.8 73 58C76.3333 53.1667 81.6 40.4 76 28Z" fill="#785048"/>
<path d="M52.5 72C47.5 75.6667 38.7 86.6 43.5 101C48.8333 100.167 58.1 93.2 52.5 72Z" fill="#785048"/>
<path d="M71 72C65.8333 78.1667 59.2 92.9 74 102.5C77.8333 97 82.6 83.2 71 72Z" fill="#785048"/>
<path d="M90.5 74.5C86.5 80 81.3 93.3 92.5 102.5C96.6666 98.6667 102.1 87.7 90.5 74.5Z" fill="#785048"/>
</svg>
